<!-- Meridian template v3.2 · Lucide party-popper · maps to 🎉 -->
<svg xmlns="http://www.w3.org/2000/svg" width="24" height="24" viewBox="0 0 24 24" fill="none" stroke="currentColor" stroke-width="2" stroke-linecap="round" stroke-linejoin="round">
  <path d="M5.8 11.3 2 22l10.7-3.79"/>
  <path d="M4 3h.01"/>
  <path d="M22 8h.01"/>
  <path d="M15 2h.01"/>
  <path d="M22 20h.01"/>
  <path d="m22 2-2.24.75a2.9 2.9 0 0 0-1.96 3.12c.1.86-.57 1.63-1.45 1.63h-.38c-.86 0-1.6.6-1.76 1.44L14 10"/>
  <path d="m22 13-1.66-.3a2.89 2.89 0 0 0-3.26 1.89 2.89 2.89 0 0 1-3.48 1.9l-.43-.13c-.85-.25-1.47-.98-1.6-1.85L11 14"/>
  <path d="M9 13c.04.31.52 1.87 1.55 2.78a2.79 2.79 0 0 0 2.79.78"/>
  <path d="M11 2a2 2 0 0 0-1.75 1.75A4 4 0 0 1 6 8"/>
</svg>
